<svg width="50" height="50" viewBox="0 0 50 50" fill="none" xmlns="http://www.w3.org/2000/svg">
<path d="M25 8.33331C37.6562 8.33331 47.9167 13.9291 47.9167 20.8333V29.1666C47.9167 36.0708 37.6562 41.6666 25 41.6666C12.5687 41.6666 2.45 36.2687 2.09375 29.5354L2.08333 29.1666V20.8333C2.08333 13.9291 12.3437 8.33331 25 8.33331ZM25 33.3333C17.25 33.3333 10.3958 31.2354 6.25 28.0208V29.1666C6.25 33.0875 14.3396 37.5 25 37.5C35.4375 37.5 43.4125 33.2708 43.7396 29.4125L43.75 29.1666L43.7521 28.0208C39.6062 31.2333 32.7521 33.3333 25 33.3333ZM25 12.5C14.3396 12.5 6.25 16.9125 6.25 20.8333C6.25 24.7541 14.3396 29.1666 25 29.1666C35.6604 29.1666 43.75 24.7541 43.75 20.8333C43.75 16.9125 35.6604 12.5 25 12.5Z" fill="url(#paint0_linear_53_459)"/>
<defs>
<linearGradient id="paint0_linear_53_459" x1="25" y1="8.33331" x2="25" y2="41.6666" gradientUnits="userSpaceOnUse">
<stop stop-color="#FFEE2D"/>
<stop offset="1" stop-color="#E8BA1F"/>
</linearGradient>
</defs>
</svg>
