<svg width="50" height="50" viewBox="0 0 50 50" fill="none" xmlns="http://www.w3.org/2000/svg">
<path d="M25 45.8334C13.4937 45.8334 4.16666 36.5063 4.16666 25C4.16666 13.4938 13.4937 4.16669 25 4.16669C36.5062 4.16669 45.8333 13.4938 45.8333 25C45.8333 36.5063 36.5062 45.8334 25 45.8334ZM25 41.6667C29.4203 41.6667 33.6595 39.9107 36.7851 36.7851C39.9107 33.6595 41.6667 29.4203 41.6667 25C41.6667 20.5797 39.9107 16.3405 36.7851 13.2149C33.6595 10.0893 29.4203 8.33335 25 8.33335C20.5797 8.33335 16.3405 10.0893 13.2149 13.2149C10.0893 16.3405 8.33332 20.5797 8.33332 25C8.33332 29.4203 10.0893 33.6595 13.2149 36.7851C16.3405 39.9107 20.5797 41.6667 25 41.6667ZM14.5833 27.0834H33.3333V31.25H25V37.5L14.5833 27.0834ZM25 18.75V12.5L35.4167 22.9167H16.6667V18.75H25Z" fill="url(#paint0_linear_53_490)"/>
<defs>
<linearGradient id="paint0_linear_53_490" x1="25" y1="4.16669" x2="25" y2="45.8334" gradientUnits="userSpaceOnUse">
<stop stop-color="#FFEE2D"/>
<stop offset="1" stop-color="#E8BA1F"/>
</linearGradient>
</defs>
</svg>
