<svg width="50" height="50" viewBox="0 0 50 50" fill="none" xmlns="http://www.w3.org/2000/svg">
<path d="M29.1667 29.6916V34.0458C27.2811 33.3792 25.2631 33.1747 23.2821 33.4495C21.3011 33.7244 19.415 34.4706 17.7821 35.6254C16.1493 36.7802 14.8174 38.31 13.8982 40.0863C12.9791 41.8625 12.4996 43.8334 12.5 45.8333L8.33333 45.8312C8.33268 43.2872 8.91441 40.7769 10.034 38.4925C11.1535 36.2081 12.7811 34.2103 14.7921 32.6521C16.8031 31.094 19.1441 30.0169 21.6357 29.5034C24.1273 28.9899 26.7035 29.0536 29.1667 29.6896V29.6916ZM25 27.0833C18.0937 27.0833 12.5 21.4896 12.5 14.5833C12.5 7.67706 18.0937 2.08331 25 2.08331C31.9062 2.08331 37.5 7.67706 37.5 14.5833C37.5 21.4896 31.9062 27.0833 25 27.0833ZM25 22.9166C29.6042 22.9166 33.3333 19.1875 33.3333 14.5833C33.3333 9.97915 29.6042 6.24998 25 6.24998C20.3958 6.24998 16.6667 9.97915 16.6667 14.5833C16.6667 19.1875 20.3958 22.9166 25 22.9166ZM37.5 35.4166V29.1666H41.6667V35.4166H47.9167V39.5833H41.6667V45.8333H37.5V39.5833H31.25V35.4166H37.5Z" fill="url(#paint0_linear_52_163)"/>
<defs>
<linearGradient id="paint0_linear_52_163" x1="28.125" y1="2.08331" x2="28.125" y2="45.8333" gradientUnits="userSpaceOnUse">
<stop stop-color="#FFEE2D"/>
<stop offset="1" stop-color="#E8BA1F"/>
</linearGradient>
</defs>
</svg>
