<svg width="50" height="50" viewBox="0 0 50 50" fill="none" xmlns="http://www.w3.org/2000/svg">
<path d="M31.25 4.16664C32.7131 4.16646 34.1504 4.5515 35.4175 5.28302C36.6846 6.01455 37.7368 7.06678 38.4682 8.33392C39.1996 9.60106 39.5846 11.0384 39.5843 12.5015C39.584 13.9646 39.1986 15.4019 38.4666 16.6687L47.9166 16.6666V20.8333H43.75V41.6666C43.75 42.2192 43.5305 42.7491 43.1398 43.1398C42.7491 43.5305 42.2192 43.75 41.6666 43.75H8.33331C7.78078 43.75 7.25087 43.5305 6.86017 43.1398C6.46947 42.7491 6.24998 42.2192 6.24998 41.6666V20.8333H2.08331V16.6666L11.5333 16.6687C10.4997 14.8789 10.1681 12.7688 10.6029 10.7483C11.0376 8.72766 12.2078 6.94074 13.8861 5.73446C15.5644 4.52817 17.6311 3.98862 19.6849 4.22055C21.7387 4.45249 23.633 5.43936 25 6.98956C25.7804 6.10077 26.7418 5.38908 27.8197 4.90222C28.8976 4.41535 30.0672 4.16455 31.25 4.16664ZM22.9166 20.8333H10.4166V39.5833H22.9166V20.8333ZM39.5833 20.8333H27.0833V39.5833H39.5833V20.8333ZM18.75 8.33331C17.6688 8.32847 16.628 8.74411 15.8476 9.49243C15.0671 10.2407 14.6082 11.2631 14.5676 12.3436C14.527 13.4241 14.9081 14.478 15.6302 15.2827C16.3523 16.0875 17.3589 16.58 18.4375 16.6562L18.75 16.6666H22.9166V12.5C22.9167 11.5043 22.5602 10.5415 21.9116 9.78593C21.2631 9.03039 20.3654 8.53207 19.3812 8.38122L19.0604 8.34372L18.75 8.33331ZM31.25 8.33331C30.1988 8.33297 29.1863 8.72999 28.4155 9.44476C27.6447 10.1595 27.1726 11.1392 27.0937 12.1875L27.0833 12.5V16.6666H31.25C32.3012 16.667 33.3137 16.27 34.0845 15.5552C34.8552 14.8404 35.3274 13.8607 35.4062 12.8125L35.4166 12.5C35.4166 11.3949 34.9777 10.3351 34.1963 9.55369C33.4149 8.77229 32.355 8.33331 31.25 8.33331Z" fill="url(#paint0_linear_53_479)"/>
<defs>
<linearGradient id="paint0_linear_53_479" x1="25" y1="4.16663" x2="25" y2="43.75" gradientUnits="userSpaceOnUse">
<stop stop-color="#FFEE2D"/>
<stop offset="1" stop-color="#E8BA1F"/>
</linearGradient>
</defs>
</svg>
