<svg width="40" height="40" viewBox="0 0 40 40" fill="none" xmlns="http://www.w3.org/2000/svg">
<path d="M12.5926 11.6667H27.4074C27.653 11.6667 27.8885 11.7642 28.0622 11.9379C28.2358 12.1115 28.3334 12.347 28.3334 12.5926V27.4074C28.3334 27.653 28.2358 27.8885 28.0622 28.0621C27.8885 28.2358 27.653 28.3333 27.4074 28.3333H12.5926C12.347 28.3333 12.1115 28.2358 11.9379 28.0621C11.7642 27.8885 11.6667 27.653 11.6667 27.4074V12.5926C11.6667 12.347 11.7642 12.1115 11.9379 11.9379C12.1115 11.7642 12.347 11.6667 12.5926 11.6667V11.6667ZM13.5185 13.5185V26.4815H26.4815V13.5185H13.5185ZM24.9074 23.6481L25.7917 24.5315V24.5778H21.2352V24.5315L22.1648 23.6481C22.2574 23.5555 22.3037 23.463 22.3037 23.3231V17.837C22.3037 17.6037 22.3037 17.2787 22.3509 17L19.2824 24.6713H19.2361L16.0741 17.6037C16.0278 17.4185 15.9815 17.4185 15.9352 17.3259V21.9741C15.888 22.3 15.9352 22.5787 16.0741 22.8583L17.3297 24.5315V24.5778H13.9815V24.5315L15.2371 22.8111C15.3759 22.5333 15.4222 22.2074 15.3759 21.9278V16.8148C15.3759 16.5824 15.3296 16.3028 15.1445 16.1176L14.3065 14.9537V14.9074H17.5611L20.2574 20.9055L22.6296 14.9074H25.7917V14.9537L24.9084 15.9768C24.8158 16.0694 24.7695 16.2092 24.7695 16.3018V23.3694C24.7695 23.462 24.8158 23.6018 24.9084 23.6481H24.9074Z" fill="#F7F7F7"/>
<circle cx="20" cy="20" r="15.1667" stroke="#F7F7F7" stroke-width="3"/>
</svg>
