<svg width="40" height="40" viewBox="0 0 40 40" fill="none" xmlns="http://www.w3.org/2000/svg">
<path d="M21.7722 22.6492C21.6238 22.6833 21.4743 22.7136 21.3241 22.74C20.5087 22.8847 19.6716 22.8817 18.8574 22.7313C18.7148 22.7051 18.513 22.6588 18.2528 22.5933L17.4 23.6383C15.2954 23.5746 14.4954 22.245 14.4954 22.245C14.4954 19.2933 15.8667 16.9004 15.8667 16.9004C17.238 15.9113 18.5426 15.9383 18.5426 15.9383L18.9158 16.3967C18.9502 16.3921 18.9848 16.3892 19.0195 16.3879C19.7308 16.299 20.4516 16.302 21.1621 16.3967L21.5713 15.9383C21.5713 15.9383 22.8769 15.9113 24.2472 16.9013C24.2472 16.9013 25.6195 19.2933 25.6195 22.245C25.6195 22.245 24.8093 23.5737 22.7046 23.6383L21.7722 22.6483V22.6492ZM18.2185 19.5238C17.6621 19.5238 17.2222 19.9167 17.2222 20.3968C17.2222 20.877 17.6713 21.2698 18.2185 21.2698C18.7741 21.2698 19.2139 20.877 19.2139 20.3968C19.2232 19.9167 18.775 19.5238 18.2185 19.5238ZM21.7815 19.5238C21.2259 19.5238 20.7861 19.9167 20.7861 20.3968C20.7861 20.877 21.2352 21.2698 21.7815 21.2698C22.338 21.2698 22.7778 20.877 22.7778 20.3968C22.7778 19.9167 22.338 19.5238 21.7815 19.5238ZM28.3334 30L23.713 25.6349H26.4815V13.4127H13.5185V25.6349H23.7065L24.2343 27.3809H13.5185C13.0274 27.3809 12.5564 27.197 12.2091 26.8695C11.8618 26.5421 11.6667 26.098 11.6667 25.6349V13.4127C11.6667 12.9496 11.8618 12.5055 12.2091 12.1781C12.5564 11.8506 13.0274 11.6667 13.5185 11.6667H26.4815C26.9726 11.6667 27.4437 11.8506 27.791 12.1781C28.1382 12.5055 28.3334 12.9496 28.3334 13.4127V30Z" fill="#F7F7F7"/>
<circle cx="20" cy="20" r="15.1667" stroke="#F7F7F7" stroke-width="3"/>
</svg>
