<svg width="50" height="50" viewBox="0 0 50 50" fill="none" xmlns="http://www.w3.org/2000/svg">
<path d="M25 45.8333C13.4938 45.8333 4.16669 36.5062 4.16669 25C4.16669 13.4937 13.4938 4.16666 25 4.16666C36.5063 4.16666 45.8334 13.4937 45.8334 25C45.8334 36.5062 36.5063 45.8333 25 45.8333ZM25 41.6667C29.4203 41.6667 33.6595 39.9107 36.7851 36.7851C39.9107 33.6595 41.6667 29.4203 41.6667 25C41.6667 20.5797 39.9107 16.3405 36.7851 13.2149C33.6595 10.0893 29.4203 8.33333 25 8.33333C20.5797 8.33333 16.3405 10.0893 13.2149 13.2149C10.0893 16.3405 8.33335 20.5797 8.33335 25C8.33335 29.4203 10.0893 33.6595 13.2149 36.7851C16.3405 39.9107 20.5797 41.6667 25 41.6667ZM22.9167 33.3333H16.6667V16.6667H22.9167V12.5H27.0834V16.6667H29.1667C30.1339 16.6667 31.0821 16.936 31.9049 17.4445C32.7277 17.953 33.3926 18.6806 33.8252 19.5458C34.2577 20.4109 34.4408 21.3794 34.354 22.3427C34.2671 23.3061 33.9137 24.2262 33.3334 25C33.9137 25.7738 34.2671 26.6939 34.354 27.6573C34.4408 28.6206 34.2577 29.5891 33.8252 30.4542C33.3926 31.3194 32.7277 32.047 31.9049 32.5555C31.0821 33.064 30.1339 33.3333 29.1667 33.3333H27.0834V37.5H22.9167V33.3333ZM20.8334 27.0833V29.1667H29.1667C29.443 29.1667 29.7079 29.0569 29.9033 28.8616C30.0986 28.6662 30.2084 28.4013 30.2084 28.125C30.2084 27.8487 30.0986 27.5838 29.9033 27.3884C29.7079 27.1931 29.443 27.0833 29.1667 27.0833H20.8334ZM20.8334 20.8333V22.9167H29.1667C29.443 22.9167 29.7079 22.8069 29.9033 22.6116C30.0986 22.4162 30.2084 22.1513 30.2084 21.875C30.2084 21.5987 30.0986 21.3338 29.9033 21.1384C29.7079 20.9431 29.443 20.8333 29.1667 20.8333H20.8334Z" fill="#F7F7F7"/>
</svg>
