<svg width="40" height="40" viewBox="0 0 40 40" fill="none" xmlns="http://www.w3.org/2000/svg">
<path d="M15.2826 25.3839C15.0249 25.214 14.8033 24.9975 14.5439 24.691C14.4092 24.5281 14.2758 24.3642 14.1436 24.1994C13.7459 23.7112 13.495 23.4861 13.2356 23.3936C13.0211 23.3175 12.846 23.1603 12.7488 22.9565C12.6516 22.7528 12.6402 22.5192 12.7172 22.3072C12.7942 22.0952 12.9533 21.9221 13.1594 21.826C13.3655 21.7299 13.6018 21.7187 13.8163 21.7948C14.4623 22.024 14.8995 22.4188 15.4888 23.1431C15.408 23.0438 15.7808 23.5057 15.8607 23.6008C16.0239 23.7935 16.1442 23.9107 16.2387 23.9727C16.4139 24.089 16.7429 24.1391 17.2265 24.0915C17.2463 23.7672 17.3072 23.4522 17.4 23.1618C14.8505 22.5454 13.4074 20.9202 13.4074 17.731C13.4074 16.6782 13.7253 15.7306 14.3162 14.9358C14.129 14.1768 14.1573 13.2589 14.5757 12.2256C14.6231 12.1087 14.6963 12.0037 14.7899 11.9182C14.8835 11.8327 14.9952 11.7689 15.1168 11.7314C15.1864 11.711 15.2259 11.7017 15.2955 11.6915C15.9853 11.587 16.9594 11.8358 18.2289 12.6221C18.9855 12.4472 19.7601 12.3595 20.5371 12.3606C21.3205 12.3606 22.0987 12.4489 22.8426 12.6221C24.1113 11.8299 25.0871 11.5811 25.7821 11.6915C25.8551 11.7025 25.9169 11.717 25.9693 11.7339C26.0886 11.7728 26.1978 11.837 26.2892 11.9221C26.3806 12.0072 26.452 12.1111 26.4985 12.2264C26.9168 13.2589 26.9451 14.1768 26.7579 14.935C27.3514 15.7297 27.6667 16.6714 27.6667 17.731C27.6667 20.9211 26.2287 22.5411 23.6792 23.1584C23.7866 23.5108 23.8425 23.9047 23.8425 24.3301C23.8425 25.0989 23.8391 25.8676 23.8322 26.6363C24.0251 26.6779 24.1976 26.7839 24.3207 26.9365C24.4438 27.0891 24.5099 27.2789 24.508 27.4741C24.5061 27.6692 24.4362 27.8578 24.3102 28.008C24.1841 28.1582 24.0095 28.2609 23.8158 28.2988C22.8374 28.4924 22.1124 27.8471 22.1124 27.0039L22.1142 26.6252L22.1185 26.0266C22.1228 25.4255 22.1245 24.8905 22.1245 24.3301C22.1245 23.7383 21.9673 23.352 21.7594 23.1754C21.1916 22.6914 21.4794 21.7701 22.2233 21.6878C24.7719 21.405 25.9487 20.4294 25.9487 17.731C25.9487 16.9202 25.6807 16.2502 25.1644 15.6898C25.0557 15.572 24.9827 15.4263 24.9538 15.2694C24.925 15.1124 24.9414 14.9507 25.0012 14.8025C25.1438 14.451 25.2048 13.99 25.0837 13.4321L25.0751 13.4347C24.6533 13.5527 24.1216 13.8083 23.4791 14.2404C23.3755 14.3099 23.2578 14.3562 23.1342 14.376C23.0106 14.3958 22.8841 14.3887 22.7636 14.3551C22.0385 14.1566 21.2894 14.0569 20.5371 14.0587C19.7726 14.0587 19.0149 14.1598 18.3106 14.3559C18.1905 14.3892 18.0645 14.3963 17.9414 14.3767C17.8183 14.357 17.7009 14.3111 17.5976 14.2421C16.9516 13.8117 16.4173 13.5569 15.993 13.4381C15.8693 13.9925 15.9303 14.4519 16.072 14.8025C16.132 14.9506 16.1486 15.1123 16.1198 15.2692C16.0911 15.4262 16.0183 15.5719 15.9097 15.6898C15.3968 16.2451 15.1254 16.9278 15.1254 17.731C15.1254 20.4243 16.3031 21.4059 18.838 21.6878C19.581 21.7701 19.8696 22.6872 19.3053 23.172C19.1403 23.3146 18.9368 23.7935 18.9368 24.3301V27.0048C18.9368 27.842 18.2195 28.4694 17.2531 28.3022C17.0571 28.2681 16.8791 28.1679 16.7495 28.0185C16.62 27.8691 16.5469 27.6799 16.5429 27.4832C16.5388 27.2865 16.604 27.0945 16.7273 26.94C16.8506 26.7855 17.0243 26.6782 17.2188 26.6363V25.7957C16.4371 25.8475 15.7911 25.7209 15.2826 25.3839V25.3839Z" fill="#F7F7F7"/>
<circle cx="20" cy="20" r="15.1667" stroke="#F7F7F7" stroke-width="3"/>
</svg>
