<svg width="40" height="40" viewBox="0 0 40 40" fill="none" xmlns="http://www.w3.org/2000/svg">
<path d="M21.6666 33.23C25.0288 32.8022 28.1019 31.1102 30.2613 28.498C32.4208 25.8857 33.5045 22.5492 33.2923 19.1666C33.08 15.784 31.5878 12.6091 29.1187 10.2873C26.6497 7.96545 23.3892 6.67087 20 6.66666C16.6066 6.66414 13.3399 7.95556 10.8655 10.2778C8.3912 12.6 6.89538 15.7783 6.68289 19.1651C6.47039 22.5518 7.55721 25.8921 9.72189 28.5054C11.8866 31.1187 14.9662 32.8084 18.3333 33.23V23.3333H15V20H18.3333V17.2433C18.3333 15.015 18.5666 14.2067 19 13.3917C19.4268 12.5853 20.0866 11.9261 20.8933 11.5C21.53 11.1583 22.3216 10.9533 23.705 10.865C24.2533 10.83 24.9633 10.8733 25.835 10.9983V14.165H25C23.4716 14.165 22.84 14.2367 22.4633 14.4383C22.2386 14.5539 22.0556 14.7369 21.94 14.9617C21.74 15.3383 21.6666 15.7117 21.6666 17.2417V20H25.8333L25 23.3333H21.6666V33.23ZM20 36.6667C10.795 36.6667 3.33331 29.205 3.33331 20C3.33331 10.795 10.795 3.33333 20 3.33333C29.205 3.33333 36.6666 10.795 36.6666 20C36.6666 29.205 29.205 36.6667 20 36.6667Z" fill="#F7F7F7"/>
</svg>
