<svg width="40" height="40" viewBox="0 0 40 40" fill="none" xmlns="http://www.w3.org/2000/svg">
<path d="M27.606 14.7864C27.53 14.476 27.314 14.2417 27.067 14.1698C26.63 14.0417 24.5 13.75 20 13.75C15.5 13.75 13.372 14.0417 12.931 14.1698C12.687 14.2406 12.471 14.475 12.394 14.7864C12.285 15.2281 12 17.0792 12 20C12 22.9208 12.285 24.7708 12.394 25.2146C12.47 25.5239 12.686 25.7583 12.932 25.8292C13.372 25.9583 15.5 26.25 20 26.25C24.5 26.25 26.629 25.9583 27.069 25.8302C27.313 25.7594 27.529 25.525 27.606 25.2135C27.715 24.7719 28 22.9167 28 20C28 17.0833 27.715 15.2292 27.606 14.7864ZM29.543 14.2687C30 16.125 30 20 30 20C30 20 30 23.875 29.543 25.7312C29.289 26.7573 28.546 27.5646 27.605 27.8375C25.896 28.3333 20 28.3333 20 28.3333C20 28.3333 14.107 28.3333 12.395 27.8375C11.45 27.5604 10.708 26.7542 10.457 25.7312C10 23.875 10 20 10 20C10 20 10 16.125 10.457 14.2687C10.711 13.2427 11.454 12.4354 12.395 12.1625C14.107 11.6667 20 11.6667 20 11.6667C20 11.6667 25.896 11.6667 27.605 12.1625C28.55 12.4396 29.292 13.2458 29.543 14.2687V14.2687ZM18 23.6458V16.3542L24 20L18 23.6458Z" fill="#F7F7F7"/>
<circle cx="20" cy="20" r="15.1667" stroke="#F7F7F7" stroke-width="3"/>
</svg>
