<svg width="40" height="40" viewBox="0 0 40 40" fill="none" xmlns="http://www.w3.org/2000/svg">
<path d="M35.1666 18.3333C35.1666 26.7096 28.3763 33.5 20 33.5C11.6237 33.5 4.83331 26.7096 4.83331 18.3333C4.83331 9.95701 11.6237 3.16666 20 3.16666C28.3763 3.16666 35.1666 9.95701 35.1666 18.3333Z" stroke="#F7F7F7" stroke-width="3"/>
<path d="M20.4727 16.0255L20.4727 16.0252C20.4896 15.1926 20.8676 14.4109 21.5061 13.8444C22.1431 13.2792 22.9905 12.9699 23.8641 12.97L20.4727 16.0255ZM20.4727 16.0255L20.4448 17.4435L20.4448 17.4438L20.4444 17.4433C20.4432 17.4457 20.4392 17.4519 20.4297 17.4592C20.4201 17.4667 20.4059 17.4744 20.3871 17.4794C20.3684 17.4845 20.3477 17.486 20.3271 17.4835L18.7714 17.2926C18.7714 17.2926 18.7714 17.2926 18.7714 17.2925C18.7713 17.2925 18.7713 17.2925 18.7712 17.2925C16.8246 17.0527 14.9433 16.2413 13.1184 14.8673L12.4833 14.389L12.3274 15.1687C12.0118 16.7474 12.1551 18.13 12.7854 19.3398C13.4116 20.5416 14.4899 21.5179 15.9437 22.3441L15.9438 22.3442L17.6857 23.3335L17.6857 23.3336C17.701 23.3423 17.7083 23.3511 17.711 23.3554C17.7113 23.3558 17.7115 23.3562 17.7117 23.3565C17.7098 23.3598 17.7043 23.3675 17.6916 23.3759L17.691 23.3763L16.1037 24.4242L14.844 25.2558L16.3511 25.3407C17.3229 25.3954 18.2599 25.3576 19.0518 25.2156L19.0523 25.2155C21.4931 24.7751 23.5613 23.7176 25.0198 22.051C26.4809 20.3816 27.2955 18.1403 27.2955 15.3992C27.2955 15.1474 27.1699 14.8738 27.0327 14.6526C26.8811 14.408 26.662 14.1421 26.3788 13.8958C25.8094 13.4005 24.9634 12.97 23.8642 12.97L23.8641 13.47C25.7864 13.47 26.7955 14.9685 26.7955 15.3992C26.7955 20.6758 23.6677 23.8746 18.9636 24.7234C18.4535 24.8149 17.8716 24.8614 17.2518 24.8645M20.4727 16.0255L17.2518 24.8645M17.1018 24.3644L17.9665 23.7935C18.0455 23.7415 18.1092 23.6728 18.152 23.5934C18.1949 23.514 18.2155 23.4263 18.2122 23.338C18.2088 23.2497 18.1816 23.1635 18.1329 23.087C18.0841 23.0104 18.0154 22.9458 17.9326 22.8988L17.1018 24.3644ZM17.1018 24.3644C16.8755 24.3629 16.6434 24.3556 16.4073 24.3423L16.3792 24.8415M17.1018 24.3644L16.3792 24.8415M16.3792 24.8415L16.6547 25.2587L17.2518 24.8645M16.3792 24.8415L17.2518 24.8645M18.9169 16.4982L19.4673 16.5666L19.4784 16.012C19.4936 15.2536 19.7559 14.511 20.2399 13.8773C20.7245 13.2428 21.4109 12.7448 22.2184 12.4528C23.026 12.1608 23.9133 12.09 24.7674 12.2509C25.6214 12.4117 26.3977 12.7956 27.0014 13.3478L27.146 13.4801L27.342 13.4789C27.4191 13.4784 27.5073 13.481 27.6039 13.484C27.858 13.4916 28.1705 13.501 28.493 13.4596C28.7336 13.4287 28.9908 13.3712 29.2775 13.2724C29.0697 14.0603 28.868 14.5058 28.4005 15.0852L28.2896 15.2226V15.3992C28.2896 18.7187 27.165 21.1496 25.4965 22.8561C23.8193 24.5715 21.5628 25.5841 19.2657 25.9984C17.713 26.2783 15.7776 26.1908 14.0561 25.8703C13.1984 25.7106 12.4069 25.4954 11.7544 25.2467C11.6743 25.2162 11.5969 25.1854 11.5223 25.1544C11.7728 25.1141 12.0406 25.0656 12.3174 25.0074C13.3286 24.7948 14.5123 24.4422 15.4047 23.8519L16.0687 23.4128L15.3848 23.0054C15.3436 22.9808 15.2993 22.9547 15.2522 22.9269C14.497 22.4816 13.0237 21.6128 12.0671 20.0266C11.1351 18.4815 10.6515 16.1755 12.0406 12.7609C13.599 14.2947 15.1975 15.3784 16.8385 15.9869L16.8385 15.9869C17.4281 16.2055 17.8126 16.3189 18.1267 16.3851C18.3639 16.4351 18.562 16.4575 18.7498 16.4787C18.8061 16.485 18.8616 16.4913 18.9169 16.4982Z" fill="#F7F7F7" stroke="#F7F7F7"/>
</svg>
