<svg width="40" height="40" viewBox="0 0 40 40" fill="none" xmlns="http://www.w3.org/2000/svg">
<path d="M20 33.3333C23.5362 33.3333 26.9276 31.9286 29.4281 29.4281C31.9286 26.9276 33.3333 23.5362 33.3333 20C33.3333 16.4638 31.9286 13.0724 29.4281 10.5719C26.9276 8.07143 23.5362 6.66667 20 6.66667C16.4638 6.66667 13.0724 8.07143 10.5719 10.5719C8.0714 13.0724 6.66665 16.4638 6.66665 20C6.66665 23.5362 8.0714 26.9276 10.5719 29.4281C13.0724 31.9286 16.4638 33.3333 20 33.3333V33.3333ZM20 36.6667C10.795 36.6667 3.33331 29.205 3.33331 20C3.33331 10.795 10.795 3.33334 20 3.33334C29.205 3.33334 36.6666 10.795 36.6666 20C36.6666 29.205 29.205 36.6667 20 36.6667ZM14.8166 21.95L10.6533 20.6517C9.75331 20.3767 9.74831 19.7567 10.855 19.3117L27.0766 13.045C28.0183 12.6617 28.5516 13.1467 28.2466 14.3617L25.485 27.395C25.2916 28.3233 24.7333 28.545 23.9583 28.1167L19.7066 24.97L17.725 26.8833C17.5216 27.08 17.3566 27.2483 17.0433 27.29C16.7316 27.3333 16.475 27.24 16.2866 26.7233L14.8366 21.9383L14.8166 21.9517V21.95Z" fill="#F7F7F7"/>
</svg>
