<svg width="30" height="30" viewBox="0 0 30 30" fill="none" xmlns="http://www.w3.org/2000/svg">
<path d="M27.7532 5.17261H2.24678C1.00588 5.17261 0 6.17849 0 7.41938V22.581C0 23.8219 1.00588 24.8278 2.24678 24.8278H27.7532C28.9941 24.8278 30 23.8219 30 22.581V7.41938C30 6.17849 28.9941 5.17261 27.7532 5.17261Z" fill="#F5F5F5"/>
<path d="M0.123535 6.68456H29.8763C29.5719 5.80466 28.7366 5.17261 27.7532 5.17261H2.24674C1.2633 5.17261 0.428047 5.80466 0.123535 6.68456Z" fill="#FF4B55"/>
<path d="M30 11.2205H0V12.7324H30V11.2205Z" fill="#FF4B55"/>
<path d="M30 8.19629H0V9.70818H30V8.19629Z" fill="#FF4B55"/>
<path d="M0 15.2391C0 15.5247 0.231621 15.7563 0.517266 15.7563H30V14.2444H0V15.2391Z" fill="#FF4B55"/>
<path d="M30 20.2925H0V21.8044H30V20.2925Z" fill="#FF4B55"/>
<path d="M29.8764 23.3157H0.123535C0.428047 24.1956 1.26336 24.8276 2.24674 24.8276H27.7532C28.7366 24.8276 29.5719 24.1956 29.8764 23.3157Z" fill="#FF4B55"/>
<path d="M30 17.2683H0V18.7802H30V17.2683Z" fill="#FF4B55"/>
<path d="M0.517266 15.756H13.4483C13.734 15.756 13.9656 15.5244 13.9656 15.2387V5.68963C13.9656 5.40393 13.734 5.17236 13.4483 5.17236H2.24678C1.00588 5.17242 0 6.1783 0 7.4192V15.2387C0 15.5244 0.231621 15.756 0.517266 15.756Z" fill="#41479B"/>
<path d="M1.45257 6.35976L1.56706 6.70312L1.92899 6.70588C1.97587 6.70629 1.99526 6.76605 1.95759 6.79388L1.66644 7.00886L1.77565 7.35392C1.78983 7.39857 1.73892 7.4356 1.70077 7.4083L1.40634 7.19789L1.11191 7.40836C1.07376 7.43566 1.02296 7.39863 1.03702 7.35398L1.14624 7.00892L0.855089 6.79394C0.817414 6.76605 0.836808 6.70629 0.883683 6.70593L1.24562 6.70318L1.36011 6.35982C1.37487 6.31529 1.43769 6.31529 1.45257 6.35976Z" fill="#F5F5F5"/>
<path d="M1.45257 8.15562L1.56706 8.49898L1.92899 8.50173C1.97587 8.50214 1.99526 8.56185 1.95759 8.58974L1.66644 8.80478L1.77565 9.14984C1.78983 9.19448 1.73892 9.23152 1.70077 9.20421L1.40634 8.9938L1.11191 9.20427C1.07376 9.23152 1.02296 9.19454 1.03702 9.1499L1.14624 8.80484L0.855089 8.5898C0.817414 8.56191 0.836808 8.5022 0.883683 8.50179L1.24562 8.49904L1.36011 8.15568C1.37487 8.1112 1.43769 8.1112 1.45257 8.15562Z" fill="#F5F5F5"/>
<path d="M1.45257 9.9518L1.56706 10.2952L1.92899 10.2979C1.97587 10.2983 1.99526 10.358 1.95759 10.3859L1.66644 10.601L1.77565 10.946C1.78983 10.9907 1.73892 11.0277 1.70077 11.0004L1.40634 10.79L1.11191 11.0005C1.07376 11.0277 1.02296 10.9908 1.03702 10.9461L1.14624 10.601L0.855089 10.386C0.817414 10.3581 0.836808 10.2984 0.883683 10.298L1.24562 10.2952L1.36011 9.95186C1.37487 9.90733 1.43769 9.90733 1.45257 9.9518Z" fill="#F5F5F5"/>
<path d="M1.45257 11.7482L1.56706 12.0916L1.92899 12.0943C1.97587 12.0947 1.99526 12.1545 1.95759 12.1823L1.66644 12.3974L1.77565 12.7424C1.78983 12.7871 1.73892 12.8241 1.70077 12.7968L1.40634 12.5864L1.11191 12.7968C1.07376 12.8241 1.02296 12.7871 1.03702 12.7425L1.14624 12.3974L0.855089 12.1824C0.817414 12.1546 0.836808 12.0948 0.883683 12.0944L1.24562 12.0916L1.36011 11.7482C1.37487 11.7037 1.43769 11.7037 1.45257 11.7482Z" fill="#F5F5F5"/>
<path d="M1.45257 13.5443L1.56706 13.8876L1.92899 13.8904C1.97587 13.8908 1.99526 13.9505 1.95759 13.9784L1.66644 14.1934L1.77565 14.5385C1.78983 14.5832 1.73892 14.6202 1.70077 14.5929L1.40634 14.3825L1.11191 14.5929C1.07376 14.6202 1.02296 14.5832 1.03702 14.5386L1.14624 14.1935L0.855089 13.9785C0.817414 13.9506 0.836808 13.8909 0.883683 13.8905L1.24562 13.8877L1.36011 13.5443C1.37487 13.4999 1.43769 13.4999 1.45257 13.5443Z" fill="#F5F5F5"/>
<path d="M2.84661 7.2401L2.9611 7.58346L3.32304 7.58621C3.36991 7.58662 3.38931 7.64639 3.35163 7.67422L3.06048 7.88926L3.1697 8.23432C3.18388 8.27897 3.13296 8.316 3.09481 8.2887L2.80038 8.07823L2.50595 8.2887C2.4678 8.31594 2.417 8.27897 2.43107 8.23432L2.54028 7.88926L2.24913 7.67422C2.21146 7.64633 2.23085 7.58662 2.27773 7.58621L2.63966 7.58346L2.75415 7.2401C2.76892 7.19568 2.83179 7.19568 2.84661 7.2401Z" fill="#F5F5F5"/>
<path d="M2.84661 9.03628L2.9611 9.37964L3.32304 9.3824C3.36991 9.38281 3.38931 9.44257 3.35163 9.47041L3.06048 9.68544L3.1697 10.0305C3.18388 10.0752 3.13296 10.1122 3.09481 10.0849L2.80038 9.87441L2.50595 10.0849C2.4678 10.1121 2.417 10.0752 2.43107 10.0305L2.54028 9.68544L2.24913 9.47041C2.21146 9.44263 2.23085 9.38281 2.27773 9.3824L2.63966 9.37964L2.75415 9.03628C2.76892 8.99181 2.83179 8.99181 2.84661 9.03628Z" fill="#F5F5F5"/>
<path d="M2.84661 10.8327L2.9611 11.176L3.32304 11.1788C3.36991 11.1792 3.38931 11.2389 3.35163 11.2668L3.06048 11.4818L3.1697 11.8269C3.18388 11.8715 3.13296 11.9086 3.09481 11.8813L2.80038 11.6708L2.50595 11.8813C2.4678 11.9085 2.417 11.8715 2.43107 11.8269L2.54028 11.4818L2.24913 11.2668C2.21146 11.2389 2.23085 11.1792 2.27773 11.1788L2.63966 11.176L2.75415 10.8327C2.76892 10.7882 2.83179 10.7882 2.84661 10.8327Z" fill="#F5F5F5"/>
<path d="M2.84661 12.6288L2.9611 12.9721L3.32304 12.9749C3.36991 12.9753 3.38931 13.035 3.35163 13.0629L3.06048 13.2779L3.1697 13.623C3.18388 13.6676 3.13296 13.7047 3.09481 13.6774L2.80038 13.4669L2.50595 13.6774C2.4678 13.7047 2.417 13.6676 2.43107 13.623L2.54028 13.2779L2.24913 13.0629C2.21146 13.035 2.23085 12.9753 2.27773 12.9749L2.63966 12.9721L2.75415 12.6288C2.76892 12.5844 2.83179 12.5844 2.84661 12.6288Z" fill="#F5F5F5"/>
<path d="M4.2409 6.35953L4.35539 6.70289L4.71732 6.70564C4.7642 6.70605 4.78359 6.76582 4.74592 6.79365L4.45477 7.00863L4.56398 7.35369C4.57816 7.39833 4.52725 7.43537 4.4891 7.40806L4.19467 7.19759L3.90024 7.40806C3.86209 7.43537 3.81129 7.39833 3.82535 7.35369L3.93457 7.00863L3.64342 6.79365C3.60574 6.76576 3.62514 6.70599 3.67201 6.70564L4.03395 6.70289L4.14844 6.35953C4.1632 6.31505 4.22607 6.31505 4.2409 6.35953Z" fill="#F5F5F5"/>
<path d="M4.2409 8.15562L4.35539 8.49898L4.71732 8.50174C4.7642 8.50215 4.78359 8.56186 4.74592 8.58975L4.45477 8.80479L4.56398 9.14984C4.57816 9.19449 4.52725 9.23152 4.4891 9.20422L4.19467 8.99375L3.90024 9.20422C3.86209 9.23147 3.81129 9.19449 3.82535 9.14984L3.93457 8.80479L3.64342 8.58975C3.60574 8.56186 3.62514 8.50215 3.67201 8.50174L4.03395 8.49898L4.14844 8.15562C4.1632 8.11121 4.22607 8.11121 4.2409 8.15562Z" fill="#F5F5F5"/>
<path d="M4.2409 9.95181L4.35539 10.2952L4.71732 10.2979C4.7642 10.2983 4.78359 10.358 4.74592 10.3859L4.45477 10.601L4.56398 10.946C4.57816 10.9907 4.52725 11.0277 4.4891 11.0004L4.19467 10.7899L3.90024 11.0004C3.86209 11.0277 3.81129 10.9907 3.82535 10.946L3.93457 10.601L3.64342 10.3859C3.60574 10.358 3.62514 10.2983 3.67201 10.2979L4.03395 10.2952L4.14844 9.95181C4.1632 9.90734 4.22607 9.90734 4.2409 9.95181Z" fill="#F5F5F5"/>
<path d="M4.2409 11.7482L4.35539 12.0916L4.71732 12.0943C4.7642 12.0947 4.78359 12.1545 4.74592 12.1823L4.45477 12.3974L4.56398 12.7424C4.57816 12.7871 4.52725 12.8241 4.4891 12.7968L4.19467 12.5863L3.90024 12.7968C3.86209 12.824 3.81129 12.7871 3.82535 12.7424L3.93457 12.3974L3.64342 12.1823C3.60574 12.1545 3.62514 12.0947 3.67201 12.0943L4.03395 12.0916L4.14844 11.7482C4.1632 11.7037 4.22607 11.7037 4.2409 11.7482Z" fill="#F5F5F5"/>
<path d="M4.2409 13.5443L4.35539 13.8877L4.71732 13.8904C4.7642 13.8908 4.78359 13.9505 4.74592 13.9784L4.45477 14.1935L4.56398 14.5385C4.57816 14.5832 4.52725 14.6202 4.4891 14.5929L4.19467 14.3824L3.90024 14.5929C3.86209 14.6201 3.81129 14.5832 3.82535 14.5385L3.93457 14.1935L3.64342 13.9784C3.60574 13.9505 3.62514 13.8908 3.67201 13.8904L4.03395 13.8877L4.14844 13.5443C4.1632 13.4999 4.22607 13.4999 4.2409 13.5443Z" fill="#F5F5F5"/>
<path d="M5.63494 7.2401L5.74944 7.58346L6.11137 7.58621C6.15824 7.58662 6.17764 7.64639 6.13996 7.67422L5.84881 7.88926L5.95803 8.23432C5.97221 8.27897 5.92129 8.316 5.88315 8.2887L5.58871 8.07823L5.29428 8.2887C5.25613 8.31594 5.20533 8.27897 5.2194 8.23432L5.32862 7.88926L5.03746 7.67422C4.99979 7.64633 5.01918 7.58662 5.06606 7.58621L5.42799 7.58346L5.54248 7.2401C5.55719 7.19568 5.62012 7.19568 5.63494 7.2401Z" fill="#F5F5F5"/>
<path d="M5.63494 9.03628L5.74944 9.37964L6.11137 9.3824C6.15824 9.38281 6.17764 9.44257 6.13996 9.47041L5.84881 9.68544L5.95803 10.0305C5.97221 10.0752 5.92129 10.1122 5.88315 10.0849L5.58871 9.87441L5.29428 10.0849C5.25613 10.1121 5.20533 10.0752 5.2194 10.0305L5.32862 9.68544L5.03746 9.47041C4.99979 9.44263 5.01918 9.38281 5.06606 9.3824L5.42799 9.37964L5.54248 9.03628C5.55719 8.99181 5.62012 8.99181 5.63494 9.03628Z" fill="#F5F5F5"/>
<path d="M5.63494 10.8327L5.74944 11.176L6.11137 11.1788C6.15824 11.1792 6.17764 11.2389 6.13996 11.2668L5.84881 11.4818L5.95803 11.8269C5.97221 11.8715 5.92129 11.9086 5.88315 11.8813L5.58871 11.6708L5.29428 11.8813C5.25613 11.9085 5.20533 11.8715 5.2194 11.8269L5.32862 11.4818L5.03746 11.2668C4.99979 11.2389 5.01918 11.1792 5.06606 11.1788L5.42799 11.176L5.54248 10.8327C5.55719 10.7882 5.62012 10.7882 5.63494 10.8327Z" fill="#F5F5F5"/>
<path d="M5.63494 12.6288L5.74944 12.9721L6.11137 12.9749C6.15824 12.9753 6.17764 13.035 6.13996 13.0629L5.84881 13.2779L5.95803 13.623C5.97221 13.6676 5.92129 13.7047 5.88315 13.6774L5.58871 13.4669L5.29428 13.6774C5.25613 13.7047 5.20533 13.6676 5.2194 13.623L5.32862 13.2779L5.03746 13.0629C4.99979 13.035 5.01918 12.9753 5.06606 12.9749L5.42799 12.9721L5.54248 12.6288C5.55719 12.5844 5.62012 12.5844 5.63494 12.6288Z" fill="#F5F5F5"/>
<path d="M7.02905 6.35976L7.14354 6.70312L7.50547 6.70588C7.55235 6.70629 7.57174 6.76605 7.53407 6.79388L7.24291 7.00886L7.35213 7.35392C7.36631 7.39857 7.31539 7.4356 7.27725 7.4083L6.98276 7.19789L6.68832 7.40836C6.65018 7.43566 6.59938 7.39863 6.61344 7.35398L6.72266 7.00892L6.43151 6.79394C6.39383 6.76605 6.41322 6.70629 6.4601 6.70593L6.82203 6.70318L6.93653 6.35982C6.95135 6.31529 7.01422 6.31529 7.02905 6.35976Z" fill="#F5F5F5"/>
<path d="M7.02905 8.15562L7.14354 8.49898L7.50547 8.50174C7.55235 8.50215 7.57174 8.56186 7.53407 8.58975L7.24291 8.80479L7.35213 9.14984C7.36631 9.19449 7.31539 9.23152 7.27725 9.20422L6.98276 8.99375L6.68832 9.20422C6.65018 9.23147 6.59938 9.19449 6.61344 9.14984L6.72266 8.80479L6.43151 8.58975C6.39383 8.56186 6.41322 8.50215 6.4601 8.50174L6.82203 8.49898L6.93653 8.15562C6.95135 8.11121 7.01422 8.11121 7.02905 8.15562Z" fill="#F5F5F5"/>
<path d="M7.02905 9.95157L7.14354 10.2949L7.50547 10.2977C7.55235 10.2981 7.57174 10.3578 7.53407 10.3857L7.24291 10.6007L7.35213 10.9458C7.36631 10.9904 7.31539 11.0275 7.27725 11.0002L6.98276 10.7896L6.68832 11.0001C6.65018 11.0274 6.59938 10.9904 6.61344 10.9457L6.72266 10.6007L6.43151 10.3856C6.39383 10.3577 6.41322 10.298 6.4601 10.2976L6.82203 10.2949L6.93653 9.95152C6.95135 9.9071 7.01422 9.9071 7.02905 9.95157Z" fill="#F5F5F5"/>
<path d="M7.02905 11.7482L7.14354 12.0916L7.50547 12.0943C7.55235 12.0947 7.57174 12.1545 7.53407 12.1823L7.24291 12.3974L7.35213 12.7424C7.36631 12.7871 7.31539 12.8241 7.27725 12.7968L6.98276 12.5863L6.68832 12.7968C6.65018 12.824 6.59938 12.7871 6.61344 12.7424L6.72266 12.3974L6.43151 12.1823C6.39383 12.1545 6.41322 12.0947 6.4601 12.0943L6.82203 12.0916L6.93653 11.7482C6.95135 11.7037 7.01422 11.7037 7.02905 11.7482Z" fill="#F5F5F5"/>
<path d="M7.02905 13.5443L7.14354 13.8877L7.50547 13.8904C7.55235 13.8908 7.57174 13.9505 7.53407 13.9784L7.24291 14.1935L7.35213 14.5385C7.36631 14.5832 7.31539 14.6202 7.27725 14.5929L6.98276 14.3824L6.68832 14.5929C6.65018 14.6201 6.59938 14.5832 6.61344 14.5385L6.72266 14.1935L6.43151 13.9784C6.39383 13.9505 6.41322 13.8908 6.4601 13.8904L6.82203 13.8877L6.93653 13.5443C6.95135 13.4999 7.01422 13.4999 7.02905 13.5443Z" fill="#F5F5F5"/>
<path d="M8.42327 7.2401L8.53776 7.58346L8.89969 7.58621C8.94657 7.58662 8.96596 7.64639 8.92829 7.67422L8.63714 7.88926L8.74635 8.23432C8.76053 8.27897 8.70961 8.316 8.67147 8.2887L8.37704 8.07823L8.08261 8.2887C8.04446 8.31594 7.99366 8.27897 8.00772 8.23432L8.11694 7.88926L7.82579 7.67422C7.78812 7.64633 7.80751 7.58662 7.85439 7.58621L8.21632 7.58346L8.33081 7.2401C8.34563 7.19568 8.40845 7.19568 8.42327 7.2401Z" fill="#F5F5F5"/>
<path d="M8.42327 9.03628L8.53776 9.37964L8.89969 9.3824C8.94657 9.38281 8.96596 9.44257 8.92829 9.47041L8.63714 9.68544L8.74635 10.0305C8.76053 10.0752 8.70961 10.1122 8.67147 10.0849L8.37704 9.87441L8.08261 10.0849C8.04446 10.1121 7.99366 10.0752 8.00772 10.0305L8.11694 9.68544L7.82579 9.47041C7.78812 9.44263 7.80751 9.38281 7.85439 9.3824L8.21632 9.37964L8.33081 9.03628C8.34563 8.99181 8.40845 8.99181 8.42327 9.03628Z" fill="#F5F5F5"/>
<path d="M8.42327 10.8327L8.53776 11.176L8.89969 11.1788C8.94657 11.1792 8.96596 11.2389 8.92829 11.2668L8.63714 11.4818L8.74635 11.8269C8.76053 11.8715 8.70961 11.9086 8.67147 11.8813L8.37704 11.6708L8.08261 11.8813C8.04446 11.9085 7.99366 11.8715 8.00772 11.8269L8.11694 11.4818L7.82579 11.2668C7.78812 11.2389 7.80751 11.1792 7.85439 11.1788L8.21632 11.176L8.33081 10.8327C8.34563 10.7882 8.40845 10.7882 8.42327 10.8327Z" fill="#F5F5F5"/>
<path d="M8.42327 12.6288L8.53776 12.9721L8.89969 12.9749C8.94657 12.9753 8.96596 13.035 8.92829 13.0629L8.63714 13.2779L8.74635 13.623C8.76053 13.6676 8.70961 13.7047 8.67147 13.6774L8.37704 13.4669L8.08261 13.6774C8.04446 13.7047 7.99366 13.6676 8.00772 13.623L8.11694 13.2779L7.82579 13.0629C7.78812 13.035 7.80751 12.9753 7.85439 12.9749L8.21632 12.9721L8.33081 12.6288C8.34563 12.5844 8.40845 12.5844 8.42327 12.6288Z" fill="#F5F5F5"/>
<path d="M9.81731 6.35953L9.9318 6.70289L10.2937 6.70564C10.3406 6.70605 10.36 6.76582 10.3223 6.79365L10.0312 7.00863L10.1404 7.35369C10.1546 7.39833 10.1037 7.43537 10.0655 7.40806L9.77108 7.19759L9.47665 7.40806C9.43851 7.43537 9.38771 7.39833 9.40177 7.35369L9.51099 7.00863L9.21984 6.79365C9.18216 6.76576 9.20155 6.70599 9.24843 6.70564L9.61036 6.70289L9.72485 6.35953C9.73956 6.31505 9.80249 6.31505 9.81731 6.35953Z" fill="#F5F5F5"/>
<path d="M9.81731 8.15562L9.9318 8.49898L10.2937 8.50174C10.3406 8.50215 10.36 8.56186 10.3223 8.58975L10.0312 8.80479L10.1404 9.14984C10.1546 9.19449 10.1037 9.23152 10.0655 9.20422L9.77108 8.99375L9.47665 9.20422C9.43851 9.23147 9.38771 9.19449 9.40177 9.14984L9.51099 8.80479L9.21984 8.58975C9.18216 8.56186 9.20155 8.50215 9.24843 8.50174L9.61036 8.49898L9.72485 8.15562C9.73956 8.11121 9.80249 8.11121 9.81731 8.15562Z" fill="#F5F5F5"/>
<path d="M9.81731 9.95181L9.9318 10.2952L10.2937 10.2979C10.3406 10.2983 10.36 10.358 10.3223 10.3859L10.0312 10.601L10.1404 10.946C10.1546 10.9907 10.1037 11.0277 10.0655 11.0004L9.77108 10.7899L9.47665 11.0004C9.43851 11.0277 9.38771 10.9907 9.40177 10.946L9.51099 10.601L9.21984 10.3859C9.18216 10.358 9.20155 10.2983 9.24843 10.2979L9.61036 10.2952L9.72485 9.95181C9.73956 9.90734 9.80249 9.90734 9.81731 9.95181Z" fill="#F5F5F5"/>
<path d="M9.81731 11.7482L9.9318 12.0916L10.2937 12.0943C10.3406 12.0947 10.36 12.1545 10.3223 12.1823L10.0312 12.3974L10.1404 12.7424C10.1546 12.7871 10.1037 12.8241 10.0655 12.7968L9.77108 12.5863L9.47665 12.7968C9.43851 12.824 9.38771 12.7871 9.40177 12.7424L9.51099 12.3974L9.21984 12.1823C9.18216 12.1545 9.20155 12.0947 9.24843 12.0943L9.61036 12.0916L9.72485 11.7482C9.73956 11.7037 9.80249 11.7037 9.81731 11.7482Z" fill="#F5F5F5"/>
<path d="M9.81731 13.5443L9.9318 13.8877L10.2937 13.8904C10.3406 13.8908 10.36 13.9505 10.3223 13.9784L10.0312 14.1935L10.1404 14.5385C10.1546 14.5832 10.1037 14.6202 10.0655 14.5929L9.77108 14.3824L9.47665 14.5929C9.43851 14.6201 9.38771 14.5832 9.40177 14.5385L9.51099 14.1935L9.21984 13.9784C9.18216 13.9505 9.20155 13.8908 9.24843 13.8904L9.61036 13.8877L9.72485 13.5443C9.73956 13.4999 9.80249 13.4999 9.81731 13.5443Z" fill="#F5F5F5"/>
<path d="M11.2116 7.2401L11.3261 7.58346L11.688 7.58621C11.7349 7.58662 11.7543 7.64639 11.7166 7.67422L11.4255 7.88926L11.5347 8.23432C11.5489 8.27897 11.4979 8.316 11.4598 8.2887L11.1654 8.07823L10.8709 8.2887C10.8328 8.31594 10.782 8.27897 10.7961 8.23432L10.9053 7.88926L10.6141 7.67422C10.5764 7.64633 10.5958 7.58662 10.6427 7.58621L11.0046 7.58346L11.1191 7.2401C11.1339 7.19568 11.1968 7.19568 11.2116 7.2401Z" fill="#F5F5F5"/>
<path d="M11.2116 9.03628L11.3261 9.37964L11.688 9.3824C11.7349 9.38281 11.7543 9.44257 11.7166 9.47041L11.4255 9.68544L11.5347 10.0305C11.5489 10.0752 11.4979 10.1122 11.4598 10.0849L11.1654 9.87441L10.8709 10.0849C10.8328 10.1121 10.782 10.0752 10.7961 10.0305L10.9053 9.68544L10.6141 9.47041C10.5764 9.44263 10.5958 9.38281 10.6427 9.3824L11.0046 9.37964L11.1191 9.03628C11.1339 8.99181 11.1968 8.99181 11.2116 9.03628Z" fill="#F5F5F5"/>
<path d="M11.2116 10.8327L11.3261 11.176L11.688 11.1788C11.7349 11.1792 11.7543 11.2389 11.7166 11.2668L11.4255 11.4818L11.5347 11.8269C11.5489 11.8715 11.4979 11.9086 11.4598 11.8813L11.1654 11.6708L10.8709 11.8813C10.8328 11.9085 10.782 11.8715 10.7961 11.8269L10.9053 11.4818L10.6141 11.2668C10.5764 11.2389 10.5958 11.1792 10.6427 11.1788L11.0046 11.176L11.1191 10.8327C11.1339 10.7882 11.1968 10.7882 11.2116 10.8327Z" fill="#F5F5F5"/>
<path d="M11.2116 12.6288L11.3261 12.9721L11.688 12.9749C11.7349 12.9753 11.7543 13.035 11.7166 13.0629L11.4255 13.2779L11.5347 13.623C11.5489 13.6676 11.4979 13.7047 11.4598 13.6774L11.1654 13.4669L10.8709 13.6774C10.8328 13.7047 10.782 13.6676 10.7961 13.623L10.9053 13.2779L10.6141 13.0629C10.5764 13.035 10.5958 12.9753 10.6427 12.9749L11.0046 12.9721L11.1191 12.6288C11.1339 12.5844 11.1968 12.5844 11.2116 12.6288Z" fill="#F5F5F5"/>
<path d="M12.6056 6.35953L12.7201 6.70289L13.0821 6.70564C13.1289 6.70605 13.1483 6.76582 13.1107 6.79365L12.8195 7.00863L12.9287 7.35369C12.9429 7.39833 12.892 7.43537 12.8539 7.40806L12.5594 7.19759L12.265 7.40806C12.2268 7.43537 12.176 7.39833 12.1901 7.35369L12.2993 7.00863L12.0082 6.79365C11.9705 6.76576 11.9899 6.70599 12.0368 6.70564L12.3987 6.70289L12.5132 6.35953C12.528 6.31505 12.5908 6.31505 12.6056 6.35953Z" fill="#F5F5F5"/>
<path d="M12.6056 8.15562L12.7201 8.49898L13.0821 8.50174C13.1289 8.50215 13.1483 8.56186 13.1107 8.58975L12.8195 8.80479L12.9287 9.14984C12.9429 9.19449 12.892 9.23152 12.8539 9.20422L12.5594 8.99375L12.265 9.20422C12.2268 9.23147 12.176 9.19449 12.1901 9.14984L12.2993 8.80479L12.0082 8.58975C11.9705 8.56186 11.9899 8.50215 12.0368 8.50174L12.3987 8.49898L12.5132 8.15562C12.528 8.11121 12.5908 8.11121 12.6056 8.15562Z" fill="#F5F5F5"/>
<path d="M12.6056 9.95181L12.7201 10.2952L13.0821 10.2979C13.1289 10.2983 13.1483 10.358 13.1107 10.3859L12.8195 10.601L12.9287 10.946C12.9429 10.9907 12.892 11.0277 12.8539 11.0004L12.5594 10.7899L12.265 11.0004C12.2268 11.0277 12.176 10.9907 12.1901 10.946L12.2993 10.601L12.0082 10.3859C11.9705 10.358 11.9899 10.2983 12.0368 10.2979L12.3987 10.2952L12.5132 9.95181C12.528 9.90734 12.5908 9.90734 12.6056 9.95181Z" fill="#F5F5F5"/>
<path d="M12.6056 11.7482L12.7201 12.0916L13.0821 12.0943C13.1289 12.0947 13.1483 12.1545 13.1107 12.1823L12.8195 12.3974L12.9287 12.7424C12.9429 12.7871 12.892 12.8241 12.8539 12.7968L12.5594 12.5863L12.265 12.7968C12.2268 12.824 12.176 12.7871 12.1901 12.7424L12.2993 12.3974L12.0082 12.1823C11.9705 12.1545 11.9899 12.0947 12.0368 12.0943L12.3987 12.0916L12.5132 11.7482C12.528 11.7037 12.5908 11.7037 12.6056 11.7482Z" fill="#F5F5F5"/>
<path d="M12.6056 13.5443L12.7201 13.8877L13.0821 13.8904C13.1289 13.8908 13.1483 13.9505 13.1107 13.9784L12.8195 14.1935L12.9287 14.5385C12.9429 14.5832 12.892 14.6202 12.8539 14.5929L12.5594 14.3824L12.265 14.5929C12.2268 14.6201 12.176 14.5832 12.1901 14.5385L12.2993 14.1935L12.0082 13.9784C11.9705 13.9505 11.9899 13.8908 12.0368 13.8904L12.3987 13.8877L12.5132 13.5443C12.528 13.4999 12.5908 13.4999 12.6056 13.5443Z" fill="#F5F5F5"/>
</svg>
