<svg width="45" height="58" viewBox="0 0 45 58" fill="none" xmlns="http://www.w3.org/2000/svg">
<g clip-path="url(#clip0_117_339)">
<path d="M27.0568 5.6195L22.1547 0L17.3733 5.481L22.2755 11.1005L27.0568 5.6195Z" fill="#FFEE2D"/>
<path d="M-0.00170641 21.8047L-0.0371094 31.6305L19.0912 13.1743L14.0798 8.20461L-0.00170641 21.8047Z" fill="#FFEE2D"/>
<path d="M15.6427 29.4593L15.6646 20.2584L0 35.6328L4.68342 40.2392L15.6427 29.4593Z" fill="#FFEE2D"/>
<path d="M27.4316 52.9404L4.90401 30.8954L0.0307617 35.6642L22.5583 57.7092L27.4316 52.9404Z" fill="#FFEE2D"/>
<path d="M27.0569 36.4928L22.2152 42.3206L17.6582 36.6316V30.8954L19.3671 19.2871L22.7848 17.4832L25.2057 20.6746V29.4163L27.0569 36.4928Z" fill="#FFEE2D"/>
<path d="M25.0633 7.39042L22.0355 4.44019L19.0823 7.3177L22.1101 10.2679L25.0633 7.39042Z" fill="#FFD449"/>
<path d="M-0.0371094 26.2249L-0.0370558 31.6305L19.0913 13.1744L16.5188 10.6842L-0.0371094 26.2249Z" fill="#FFD449"/>
<path d="M15.6426 29.4593V24.6986L5.2688 35.3828L7.40488 37.4641L15.6426 29.4593Z" fill="#FFD449"/>
<path d="M27.4314 52.9404L7.3277 33.2673L4.82642 35.715L24.9301 55.3881L27.4314 52.9404Z" fill="#FFD449"/>
<path d="M18.0854 31.4976L22.7848 35.5215L26.7721 30.6651L26.0601 36.4928L22.2152 42.4593C19.6519 39.5455 20.2215 39.5455 17.6582 36.6316L18.0854 31.4976Z" fill="#FFD449"/>
<path d="M16.1941 6.04081L22.3674 -0.000289917L28.3886 5.89192L22.2153 11.933L16.1941 6.04081Z" fill="#FFEE2D"/>
<path d="M45.0017 21.8047L45.0371 31.6305L25.9087 13.1743L30.9202 8.20461L45.0017 21.8047Z" fill="#FFEE2D"/>
<path d="M29.3574 29.4593L29.3354 20.2584L45 35.6328L40.3166 40.2392L29.3574 29.4593Z" fill="#FFEE2D"/>
<path d="M17.5684 52.9404L40.0958 30.8954L44.9692 35.6642L22.5 57.8612L17.5684 52.9404Z" fill="#FFEE2D"/>
<path d="M17.3735 36.6316L22.2153 42.4593L27.3419 36.6316V30.8954V19.3527L22.3581 13.8756L17.3855 19.3527L17.3735 30.9467V36.6316Z" fill="#FFEE2D"/>
<path d="M18.4792 8.27716L22.3095 4.52895L26.0454 8.18478L22.2151 11.933L18.4792 8.27716Z" fill="#FFD449"/>
<path d="M45.0371 26.2249V31.6305L25.9087 13.1744L28.4811 10.6842L45.0371 26.2249Z" fill="#FFD449"/>
<path d="M29.3574 29.4593V24.6986L39.7311 35.3828L37.595 37.4641L29.3574 29.4593Z" fill="#FFD449"/>
<path d="M19.9368 50.5072L37.6723 33.2673L40.1738 35.7149L22.2152 52.7273L19.9368 50.5072Z" fill="#FFD449"/>
<path d="M27.3419 29.2775L22.2153 35.5215L17.3735 29.4163V36.6316L22.2153 42.4593C24.7786 39.5455 24.7786 39.5455 27.3419 36.6316V29.2775Z" fill="#FFD449"/>
</g>
<defs>
<clipPath id="clip0_117_339">
<rect width="45" height="58" fill="white"/>
</clipPath>
</defs>
</svg>
